{
	"asset":{
		"generator":"Khronos glTF Blender I/O v3.6.28",
		"version":"2.0"
	},
	"scene":0,
	"scenes":[
		{
			"name":"Scene",
			"nodes":[
				0
			]
		}
	],
	"nodes":[
		{
			"mesh":0,
			"name":"Ring",
			"rotation":[
				0.4014724791049957,
				0.657214879989624,
				-0.40364083647727966,
				0.4939257502555847
			],
			"scale":[
				1.412498116493225,
				1.0409384965896606,
				1.5506550073623657
			],
			"translation":[
				0,
				0.6825000047683716,
				0
			]
		}
	],
	"materials":[
		{
			"doubleSided":true,
			"name":"Material",
			"pbrMetallicRoughness":{}
		}
	],
	"meshes":[
		{
			"name":"Cube",
			"primitives":[
				{
					"attributes":{
						"POSITION":0,
						"NORMAL":1
					},
					"indices":2,
					"material":0
				}
			]
		}
	],
	"accessors":[
		{
			"bufferView":0,
			"componentType":5126,
			"count":1620,
			"max":[
				0.8819507360458374,
				1.4080334901809692,
				0.7328906059265137
			],
			"min":[
				-0.8819507360458374,
				-1.4080334901809692,
				-0.7328906059265137
			],
			"type":"VEC3"
		},
		{
			"bufferView":1,
			"componentType":5126,
			"count":1620,
			"type":"VEC3"
		},
		{
			"bufferView":2,
			"componentType":5123,
			"count":9762,
			"type":"SCALAR"
		}
	],
	"bufferViews":[
		{
			"buffer":0,
			"byteLength":19440,
			"byteOffset":0,
			"target":34962
		},
		{
			"buffer":0,
			"byteLength":19440,
			"byteOffset":19440,
			"target":34962
		},
		{
			"buffer":0,
			"byteLength":19524,
			"byteOffset":38880,
			"target":34963
		}
	],
	"buffers":[
		{
			"byteLength":58404,
			"uri":"ring_shader_pos1.bin"
		}
	]
}
