{
	"asset":{
		"generator":"Khronos glTF Blender I/O v3.6.28",
		"version":"2.0"
	},
	"scene":0,
	"scenes":[
		{
			"name":"Scene",
			"nodes":[
				0,
				1,
				2,
				3,
				4,
				5
			]
		}
	],
	"nodes":[
		{
			"mesh":0,
			"name":"Sphere",
			"scale":[
				0.5621095895767212,
				1,
				0.6073221564292908
			],
			"translation":[
				0.016897834837436676,
				3.629135847091675,
				-0.04154720529913902
			]
		},
		{
			"mesh":1,
			"name":"Torus",
			"rotation":[
				0.70710688829422,
				0,
				0,
				0.7071066498756409
			],
			"scale":[
				2.504011869430542,
				2.504011869430542,
				2.504011869430542
			]
		},
		{
			"mesh":2,
			"name":"var_1_0",
			"scale":[
				0.8317546844482422,
				0.8317546844482422,
				0.8317546844482422
			],
			"translation":[
				0.016897834837436676,
				3.5077152252197266,
				-0.04154720529913902
			]
		},
		{
			"mesh":3,
			"name":"var_1_1",
			"scale":[
				0.8317546844482422,
				0.5239189267158508,
				0.8317546844482422
			],
			"translation":[
				0.016897834837436676,
				3.4811551570892334,
				-0.04154720529913902
			]
		},
		{
			"mesh":4,
			"name":"var_1_2",
			"rotation":[
				0.9999274015426636,
				0,
				0,
				0.012052884325385094
			],
			"scale":[
				0.8317546844482422,
				0.8317546248435974,
				0.8317546248435974
			],
			"translation":[
				0.016897834837436676,
				3.5077152252197266,
				-0.04154720529913902
			]
		},
		{
			"mesh":5,
			"name":"var_1_3",
			"scale":[
				0.8317546844482422,
				1.5094506740570068,
				0.8317546844482422
			],
			"translation":[
				0.016897834837436676,
				3.853130340576172,
				-0.04154720529913902
			]
		}
	],
	"materials":[
		{
			"doubleSided":true,
			"name":"Ring",
			"pbrMetallicRoughness":{}
		},
		{
			"doubleSided":true,
			"name":"Diamond2.001",
			"pbrMetallicRoughness":{}
		},
		{
			"doubleSided":true,
			"name":"Diamond2.002",
			"pbrMetallicRoughness":{}
		},
		{
			"doubleSided":true,
			"name":"Diamond2.003",
			"pbrMetallicRoughness":{}
		},
		{
			"doubleSided":true,
			"name":"Diamond2.004",
			"pbrMetallicRoughness":{}
		}
	],
	"meshes":[
		{
			"name":"Sphere",
			"primitives":[
				{
					"attributes":{
						"POSITION":0,
						"NORMAL":1
					},
					"indices":2,
					"material":0
				}
			]
		},
		{
			"name":"Torus",
			"primitives":[
				{
					"attributes":{
						"POSITION":3,
						"NORMAL":4
					},
					"indices":5,
					"material":0
				}
			]
		},
		{
			"name":"dmesh.002",
			"primitives":[
				{
					"attributes":{
						"POSITION":6,
						"NORMAL":7
					},
					"indices":8,
					"material":1
				}
			]
		},
		{
			"name":"dmesh.001",
			"primitives":[
				{
					"attributes":{
						"POSITION":9,
						"NORMAL":10
					},
					"indices":8,
					"material":2
				}
			]
		},
		{
			"name":"dmesh.003",
			"primitives":[
				{
					"attributes":{
						"POSITION":11,
						"NORMAL":12
					},
					"indices":8,
					"material":3
				}
			]
		},
		{
			"name":"dmesh.005",
			"primitives":[
				{
					"attributes":{
						"POSITION":13,
						"NORMAL":14
					},
					"indices":8,
					"material":4
				}
			]
		}
	],
	"accessors":[
		{
			"bufferView":0,
			"componentType":5126,
			"count":337,
			"max":[
				1.2265756130218506,
				-0.23064084351062775,
				1.149198293685913
			],
			"min":[
				-1.251950979232788,
				-1.0008602142333984,
				-1.1638085842132568
			],
			"type":"VEC3"
		},
		{
			"bufferView":1,
			"componentType":5126,
			"count":337,
			"type":"VEC3"
		},
		{
			"bufferView":2,
			"componentType":5123,
			"count":1776,
			"type":"SCALAR"
		},
		{
			"bufferView":3,
			"componentType":5126,
			"count":576,
			"max":[
				1.1025522947311401,
				0.14471079409122467,
				1.1025522947311401
			],
			"min":[
				-1.1025522947311401,
				-0.1447106897830963,
				-1.2019864320755005
			],
			"type":"VEC3"
		},
		{
			"bufferView":4,
			"componentType":5126,
			"count":576,
			"type":"VEC3"
		},
		{
			"bufferView":5,
			"componentType":5123,
			"count":3456,
			"type":"SCALAR"
		},
		{
			"bufferView":6,
			"componentType":5126,
			"count":560,
			"max":[
				1,
				0.3580000102519989,
				1
			],
			"min":[
				-1,
				-0.5591169595718384,
				-1
			],
			"type":"VEC3"
		},
		{
			"bufferView":7,
			"componentType":5126,
			"count":560,
			"type":"VEC3"
		},
		{
			"bufferView":8,
			"componentType":5123,
			"count":948,
			"type":"SCALAR"
		},
		{
			"bufferView":9,
			"componentType":5126,
			"count":560,
			"max":[
				1,
				0.3580000102519989,
				1
			],
			"min":[
				-1,
				-0.5591169595718384,
				-1
			],
			"type":"VEC3"
		},
		{
			"bufferView":10,
			"componentType":5126,
			"count":560,
			"type":"VEC3"
		},
		{
			"bufferView":11,
			"componentType":5126,
			"count":560,
			"max":[
				1,
				0.3580000102519989,
				1
			],
			"min":[
				-1,
				-0.5591169595718384,
				-1
			],
			"type":"VEC3"
		},
		{
			"bufferView":12,
			"componentType":5126,
			"count":560,
			"type":"VEC3"
		},
		{
			"bufferView":13,
			"componentType":5126,
			"count":560,
			"max":[
				1,
				0.3580000102519989,
				1
			],
			"min":[
				-1,
				-0.5591169595718384,
				-1
			],
			"type":"VEC3"
		},
		{
			"bufferView":14,
			"componentType":5126,
			"count":560,
			"type":"VEC3"
		}
	],
	"bufferViews":[
		{
			"buffer":0,
			"byteLength":4044,
			"byteOffset":0,
			"target":34962
		},
		{
			"buffer":0,
			"byteLength":4044,
			"byteOffset":4044,
			"target":34962
		},
		{
			"buffer":0,
			"byteLength":3552,
			"byteOffset":8088,
			"target":34963
		},
		{
			"buffer":0,
			"byteLength":6912,
			"byteOffset":11640,
			"target":34962
		},
		{
			"buffer":0,
			"byteLength":6912,
			"byteOffset":18552,
			"target":34962
		},
		{
			"buffer":0,
			"byteLength":6912,
			"byteOffset":25464,
			"target":34963
		},
		{
			"buffer":0,
			"byteLength":6720,
			"byteOffset":32376,
			"target":34962
		},
		{
			"buffer":0,
			"byteLength":6720,
			"byteOffset":39096,
			"target":34962
		},
		{
			"buffer":0,
			"byteLength":1896,
			"byteOffset":45816,
			"target":34963
		},
		{
			"buffer":0,
			"byteLength":6720,
			"byteOffset":47712,
			"target":34962
		},
		{
			"buffer":0,
			"byteLength":6720,
			"byteOffset":54432,
			"target":34962
		},
		{
			"buffer":0,
			"byteLength":6720,
			"byteOffset":61152,
			"target":34962
		},
		{
			"buffer":0,
			"byteLength":6720,
			"byteOffset":67872,
			"target":34962
		},
		{
			"buffer":0,
			"byteLength":6720,
			"byteOffset":74592,
			"target":34962
		},
		{
			"buffer":0,
			"byteLength":6720,
			"byteOffset":81312,
			"target":34962
		}
	],
	"buffers":[
		{
			"byteLength":88032,
			"uri":"ring_shader_pos1.bin"
		}
	]
}
